<?xml version="1.0" encoding="UTF-8" standalone="no"?>
<svg
   xmlns:dc="http://purl.org/dc/elements/1.1/"
   xmlns:cc="http://creativecommons.org/ns#"
   xmlns:rdf="http://www.w3.org/1999/02/22-rdf-syntax-ns#"
   xmlns:svg="http://www.w3.org/2000/svg"
   xmlns="http://www.w3.org/2000/svg"
   xmlns:sodipodi="http://sodipodi.sourceforge.net/DTD/sodipodi-0.dtd"
   xmlns:inkscape="http://www.inkscape.org/namespaces/inkscape"
   width="349.5"
   height="280.92139"
   version="1.1"
   id="svg4580"
   sodipodi:docname="cutom-elements.svg"
   inkscape:version="0.92.1 r15371">
  <metadata
     id="metadata4586">
    <rdf:RDF>
      <cc:Work
         rdf:about="">
        <dc:format>image/svg+xml</dc:format>
        <dc:type
           rdf:resource="http://purl.org/dc/dcmitype/StillImage" />
        <dc:title></dc:title>
      </cc:Work>
    </rdf:RDF>
  </metadata>
  <defs
     id="defs4584" />
  <sodipodi:namedview
     pagecolor="#ffffff"
     bordercolor="#666666"
     borderopacity="1"
     objecttolerance="10"
     gridtolerance="10"
     guidetolerance="10"
     inkscape:pageopacity="0"
     inkscape:pageshadow="2"
     inkscape:window-width="1920"
     inkscape:window-height="1053"
     id="namedview4582"
     showgrid="false"
     fit-margin-top="0"
     fit-margin-left="0"
     fit-margin-right="0"
     fit-margin-bottom="0"
     inkscape:zoom="0.57413793"
     inkscape:cx="190.25"
     inkscape:cy="109.14999"
     inkscape:window-x="-9"
     inkscape:window-y="-9"
     inkscape:window-maximized="1"
     inkscape:current-layer="svg4580" />
  <!-- Created with Method Draw - http://github.com/duopixel/Method-Draw/ -->
  <g
     id="g4578"
     transform="translate(-99.75,-28.228607)">
    <title
       id="title4558">Layer 1</title>
    <path
       transform="rotate(-90,141.94249,204.77553)"
       id="svg_1"
       d="m 113.94249,204.77555 16.23536,-9.00002 v 4.5 h 23.52928 v -4.5 l 16.23535,9.00002 -16.23535,8.99998 v -4.49999 h -23.52928 v 4.49999 z"
       inkscape:connector-curvature="0"
       style="fill:#ac3535;stroke:#000000;stroke-width:1.5" />
    <path
       transform="rotate(-90,200.46248,203.87978)"
       id="svg_3"
       d="m 213.92402,208.92819 c 1.07005,-0.90466 2.09344,-1.94761 2.99497,-2.88382 l -27.01297,-0.42959 -3.70524,3.69959 -11.73831,-0.31775 c 1.47083,-1.68438 3.08206,-3.66307 4.27665,-5.14927 l -4.24937,-4.99627 h 12.52451 l 2.54834,3.12171 h 27.57957 l -3.42103,-3.11472 c 1.05578,-0.98157 2.61827,-2.29149 3.46586,-2.9783 l 9.27547,7.93843 -9.29657,8.06158 z"
       stroke-opacity="null"
       inkscape:connector-curvature="0"
       style="fill:#ac3535;stroke:#000000;stroke-width:1.5" />
    <text
       xml:space="preserve"
       font-size="18"
       id="svg_4"
       y="211.39999"
       x="123.5"
       fill-opacity="null"
       stroke-opacity="null"
       style="font-size:18px;font-family:Helvetica, Arial, sans-serif;text-anchor:start;fill:#000000;stroke:#000000;stroke-width:0">data</text>
    <text
       xml:space="preserve"
       font-size="18"
       id="svg_5"
       y="211.39999"
       x="173.5"
       fill-opacity="null"
       stroke-opacity="null"
       style="font-size:18px;font-family:Helvetica, Arial, sans-serif;text-anchor:start;fill:#000000;stroke:#000000;stroke-width:0">events</text>
    <rect
       rx="10"
       id="svg_6"
       height="64"
       width="154"
       y="244.39999"
       x="100.5"
       stroke-opacity="null"
       style="fill:#ac3535;stroke:#000000;stroke-width:1.5" />
    <text
       xml:space="preserve"
       font-size="21"
       id="svg_7"
       y="278.39999"
       x="101.5"
       stroke-opacity="null"
       style="font-size:21px;font-family:Helvetica, Arial, sans-serif;text-anchor:start;fill:#ffffff;stroke:#000000;stroke-width:0">custom-element</text>
    <path
       transform="rotate(-90,335.9425,204.77553)"
       id="svg_8"
       d="m 307.94249,204.77555 16.23536,-9.00002 v 4.5 h 23.52928 v -4.5 l 16.23536,9.00002 -16.23536,8.99998 v -4.49999 h -23.52928 v 4.49999 z"
       inkscape:connector-curvature="0"
       style="fill:#ac3535;stroke:#000000;stroke-width:1.5" />
    <path
       transform="rotate(-90,394.46249,203.87978)"
       id="svg_9"
       d="m 407.92402,208.92819 c 1.07006,-0.90466 2.09344,-1.94761 2.99497,-2.88382 l -27.01297,-0.42959 -3.70524,3.69959 -11.73831,-0.31775 c 1.47083,-1.68438 3.08206,-3.66307 4.27665,-5.14927 l -4.24937,-4.99627 h 12.52451 l 2.54834,3.12171 h 27.57957 l -3.42103,-3.11472 c 1.05578,-0.98157 2.61827,-2.29149 3.46586,-2.9783 l 9.27547,7.93843 -9.29657,8.06158 z"
       stroke-opacity="null"
       inkscape:connector-curvature="0"
       style="fill:#ac3535;stroke:#000000;stroke-width:1.5" />
    <text
       xml:space="preserve"
       font-size="18"
       id="svg_10"
       y="211.39999"
       x="317.5"
       fill-opacity="null"
       stroke-opacity="null"
       style="font-size:18px;font-family:Helvetica, Arial, sans-serif;text-anchor:start;fill:#000000;stroke:#000000;stroke-width:0">data</text>
    <text
       xml:space="preserve"
       font-size="18"
       id="svg_11"
       y="211.39999"
       x="367.5"
       fill-opacity="null"
       stroke-opacity="null"
       style="font-size:18px;font-family:Helvetica, Arial, sans-serif;text-anchor:start;fill:#000000;stroke:#000000;stroke-width:0">events</text>
    <rect
       rx="10"
       id="svg_12"
       height="64"
       width="154"
       y="244.39999"
       x="294.5"
       stroke-opacity="null"
       style="fill:#ac3535;stroke:#000000;stroke-width:1.5" />
    <text
       xml:space="preserve"
       font-size="21"
       id="svg_13"
       y="278.39999"
       x="295.5"
       stroke-opacity="null"
       style="font-size:21px;font-family:Helvetica, Arial, sans-serif;text-anchor:start;fill:#ffffff;stroke:#000000;stroke-width:0">custom-element</text>
    <path
       transform="rotate(-90,237.94249,57.775528)"
       id="svg_14"
       d="m 209.94249,57.77555 16.23536,-9.00002 v 4.5 h 23.52928 v -4.5 l 16.23536,9.00002 -16.23536,8.99998 v -4.49999 h -23.52928 v 4.49999 z"
       inkscape:connector-curvature="0"
       style="fill:#ac3535;stroke:#000000;stroke-width:1.5" />
    <path
       transform="rotate(-90,296.46249,56.879776)"
       id="svg_15"
       d="m 309.92402,61.92819 c 1.07006,-0.90466 2.09344,-1.94761 2.99497,-2.88382 l -27.01297,-0.42959 -3.70524,3.69959 -11.73831,-0.31775 c 1.47083,-1.68438 3.08206,-3.66307 4.27665,-5.14927 l -4.24937,-4.99627 h 12.52451 l 2.54834,3.12171 h 27.57957 l -3.42103,-3.11472 c 1.05578,-0.98157 2.61827,-2.29149 3.46586,-2.9783 l 9.27547,7.93843 -9.29657,8.06158 z"
       stroke-opacity="null"
       inkscape:connector-curvature="0"
       style="fill:#ac3535;stroke:#000000;stroke-width:1.5" />
    <text
       xml:space="preserve"
       font-size="18"
       id="svg_16"
       y="64.400002"
       x="219.5"
       fill-opacity="null"
       stroke-opacity="null"
       style="font-size:18px;font-family:Helvetica, Arial, sans-serif;text-anchor:start;fill:#000000;stroke:#000000;stroke-width:0">data</text>
    <text
       xml:space="preserve"
       font-size="18"
       id="svg_17"
       y="64.400002"
       x="269.5"
       fill-opacity="null"
       stroke-opacity="null"
       style="font-size:18px;font-family:Helvetica, Arial, sans-serif;text-anchor:start;fill:#000000;stroke:#000000;stroke-width:0">events</text>
    <rect
       rx="10"
       id="svg_18"
       height="64"
       width="343"
       y="97.400002"
       x="101.5"
       stroke-opacity="null"
       style="fill:#ac3535;stroke:#000000;stroke-width:1.5" />
    <text
       xml:space="preserve"
       font-size="21"
       id="svg_19"
       y="131.39999"
       x="197.5"
       stroke-opacity="null"
       style="font-size:21px;font-family:Helvetica, Arial, sans-serif;text-anchor:start;fill:#ffffff;stroke:#000000;stroke-width:0">custom-element</text>
  </g>
</svg>
